# xmcd
#
# Track frame offsets: 
#        150
#        15779
#        28551
#        44826
#        58239
#        83189
#        96595
#        113197
#        126093
#        139757
#        151230
#        165153
#        186147
#
# Disc length: 2650 seconds
#
# Revision: 0
# Processed by: cddbd v1.5.2PL0 Copyright (c) Steve Scherf et al.
# Submitted via: ExactAudioCopy v1.1
#
DISCID=a50a580d
DTITLE=Jay Willie Blues Band - Hell on Wheels
DYEAR=2016
DGENRE=Contemporary Blues
TTITLE0=Willie And The Hand Jive
TTITLE1=The Horse
TTITLE2=Hell On Wheels
TTITLE3=You Left The Water Running
TTITLE4=Alive Again
TTITLE5=The Hunter Captured By The Game
TTITLE6=Take Me To The River
TTITLE7=This Is The Thanks I Get
TTITLE8=You'll Lose a Good Thing
TTITLE9=Everybody
TTITLE10=A Million Tears
TTITLE11=21
TTITLE12=The Horse (Instrumental)
EXTD=
EXTT0=
EXTT1=
EXTT2=
EXTT3=
EXTT4=
EXTT5=
EXTT6=
EXTT7=
EXTT8=
EXTT9=
EXTT10=
EXTT11=
EXTT12=
PLAYORDER=
